<svg width="24.000000" height="24.000000" viewBox="0 0 24 24" fill="none" xmlns="http://www.w3.org/2000/svg" xmlns:xlink="http://www.w3.org/1999/xlink">
	<desc>
			Created with Pixso.
	</desc>
	<defs/>
	<path id="Vector" d="M8.67 14.33C8.67 15.62 9.66 16.66 10.89 16.66L13.4 16.66C14.47 16.66 15.34 15.75 15.34 14.62C15.34 13.41 14.81 12.97 14.02 12.7L9.99 11.29C9.2 11.01 8.67 10.58 8.67 9.37C8.67 8.25 9.54 7.33 10.61 7.33L13.12 7.33C14.35 7.33 15.34 8.37 15.34 9.66" stroke="#284B8F" stroke-opacity="1.000000" stroke-width="1.500000" stroke-linejoin="round" stroke-linecap="round"/>
	<path id="Vector" d="M12 6L12 18" stroke="#284B8F" stroke-opacity="1.000000" stroke-width="1.500000" stroke-linejoin="round" stroke-linecap="round"/>
	<path id="Vector" d="M12 22C6.47 22 2 17.52 2 12C2 6.47 6.47 2 12 2C17.52 2 22 6.47 22 12C22 17.52 17.52 22 12 22Z" stroke="#284B8F" stroke-opacity="1.000000" stroke-width="1.500000" stroke-linejoin="round"/>
	<g opacity="0.000000"/>
</svg>
