<svg width="11.142578" height="20.571289" viewBox="0 0 11.1426 20.5713" fill="none" xmlns="http://www.w3.org/2000/svg" xmlns:xlink="http://www.w3.org/1999/xlink">
	<desc>
			Created with Pixso.
	</desc>
	<defs/>
	<path id="Vector" d="M7.46 4.63L7.46 7.53L11.14 7.53L10.56 11.44L7.46 11.44L7.46 20.44C6.84 20.52 6.21 20.57 5.57 20.57C4.82 20.57 4.09 20.51 3.38 20.4L3.38 11.44L0 11.44L0 7.53L3.38 7.53L3.38 3.98C3.38 1.78 5.21 0 7.46 0L7.46 0C7.47 0 7.48 0 7.48 0L11.14 0L11.14 3.37L8.75 3.37C8.04 3.37 7.46 3.94 7.46 4.63L7.46 4.63Z" fill="#232323" fill-opacity="1.000000" fill-rule="evenodd"/>
</svg>
