<svg width="15.000000" height="28.000000" viewBox="0 0 15 28" fill="none" xmlns="http://www.w3.org/2000/svg" xmlns:xlink="http://www.w3.org/1999/xlink">
	<desc>
			Created with Pixso.
	</desc>
	<defs/>
	<path id="Vector" d="M10.05 6.3L10.05 10.25L14.99 10.25L14.21 15.57L10.05 15.57L10.05 27.82C9.21 27.94 8.36 28 7.49 28C6.49 28 5.51 27.92 4.56 27.76L4.56 15.57L0 15.57L0 10.25L4.56 10.25L4.56 5.42C4.56 2.43 7.01 0 10.05 0L10.05 0C10.06 0 10.07 0 10.08 0L15 0L15 4.59L11.78 4.59C10.83 4.59 10.05 5.36 10.05 6.3L10.05 6.3Z" fill="#284B8F" fill-opacity="1.000000" fill-rule="nonzero"/>
</svg>
