<svg width="20.571289" height="20.571289" viewBox="0 0 20.5713 20.5713" fill="none" xmlns="http://www.w3.org/2000/svg" xmlns:xlink="http://www.w3.org/1999/xlink">
	<desc>
			Created with Pixso.
	</desc>
	<defs/>
	<path id="linkedin" d="M4.62 20.57L0.25 20.57L0.25 6.81L4.62 6.81L4.62 20.57ZM2.44 4.88C1.02 4.88 0 3.85 0 2.44C0 1.02 1.15 0 2.44 0C3.85 0 4.88 1.02 4.88 2.44C4.88 3.85 3.85 4.88 2.44 4.88ZM20.57 20.57L16.2 20.57L16.2 13.11C16.2 10.92 15.29 10.28 14.01 10.28C12.72 10.28 11.44 11.31 11.44 13.24L11.44 20.57L7.07 20.57L7.07 6.81L11.18 6.81L11.18 8.74C11.57 7.84 13.11 6.42 15.29 6.42C17.74 6.42 20.31 7.84 20.31 12.08L20.31 20.57L20.57 20.57Z" fill="#232323" fill-opacity="1.000000" fill-rule="evenodd"/>
</svg>
