<svg width="26.000000" height="26.000000" viewBox="0 0 26 26" fill="none" xmlns="http://www.w3.org/2000/svg" xmlns:xlink="http://www.w3.org/1999/xlink">
	<desc>
			Created with Pixso.
	</desc>
	<defs/>
	<path id="linkedin" d="M5.84 26L0.32 26L0.32 8.61L5.84 8.61L5.84 26ZM3.08 6.17C1.3 6.17 0 4.87 0 3.08C0 1.29 1.46 0 3.08 0C4.87 0 6.17 1.29 6.17 3.08C6.17 4.87 4.87 6.17 3.08 6.17ZM26 26L20.47 26L20.47 16.57C20.47 13.81 19.33 13 17.71 13C16.08 13 14.46 14.29 14.46 16.73L14.46 26L8.93 26L8.93 8.61L14.13 8.61L14.13 11.04C14.62 9.91 16.57 8.12 19.33 8.12C22.42 8.12 25.67 9.91 25.67 15.27L25.67 26L26 26Z" fill="#284B8F" fill-opacity="1.000000" fill-rule="nonzero"/>
</svg>
