<svg width="19.500000" height="15.500000" viewBox="0 0 19.5 15.5" fill="none" xmlns="http://www.w3.org/2000/svg" xmlns:xlink="http://www.w3.org/1999/xlink">
	<desc>
			Created with Pixso.
	</desc>
	<defs/>
	<path id="Vector" d="M0.75 3.95C0.75 2.83 0.75 2.26 0.96 1.84C1.16 1.46 1.46 1.15 1.84 0.96C2.26 0.75 2.83 0.75 3.95 0.75L15.54 0.75C16.66 0.75 17.22 0.75 17.65 0.96C18.03 1.15 18.34 1.46 18.53 1.84C18.75 2.26 18.75 2.82 18.75 3.94L18.75 11.55C18.75 12.67 18.75 13.23 18.53 13.65C18.34 14.03 18.03 14.34 17.65 14.53C17.23 14.75 16.67 14.75 15.55 14.75L3.94 14.75C2.82 14.75 2.26 14.75 1.84 14.53C1.46 14.34 1.16 14.03 0.96 13.65C0.75 13.23 0.75 12.67 0.75 11.55L0.75 3.95ZM2.25 2.25L7.85 6.36L7.85 6.36C8.53 6.86 8.87 7.1 9.24 7.2C9.57 7.29 9.92 7.29 10.25 7.2C10.62 7.1 10.96 6.86 11.64 6.36L17.25 2.25" stroke="#232323" stroke-opacity="1.000000" stroke-width="1.500000" stroke-linejoin="round" stroke-linecap="round"/>
</svg>
