<svg width="24.000000" height="24.000000" viewBox="0 0 24 24" fill="none" xmlns="http://www.w3.org/2000/svg" xmlns:xlink="http://www.w3.org/1999/xlink">
	<desc>
			Created with Pixso.
	</desc>
	<defs/>
	<path id="Vector" d="M8.83 10.87C6.45 10.79 4.56 8.83 4.56 6.44C4.56 3.99 6.54 2 9 2C11.45 2 13.44 3.99 13.44 6.44C13.42 8.83 11.54 10.79 9.16 10.87C9.06 10.86 8.94 10.86 8.83 10.87Z" stroke="#284B8F" stroke-opacity="1.000000" stroke-width="1.500000" stroke-linejoin="round"/>
	<path id="Vector" d="M16.41 4C18.34 4 19.91 5.57 19.91 7.5C19.91 9.38 18.41 10.92 16.53 11C16.45 10.99 16.36 10.99 16.27 11" stroke="#284B8F" stroke-opacity="1.000000" stroke-width="1.500000" stroke-linejoin="round" stroke-linecap="round"/>
	<path id="Vector" d="M4.16 20.42C6.91 22.26 11.41 22.26 14.16 20.42C16.58 18.8 16.58 16.16 14.16 14.55C11.43 12.73 6.91 12.73 4.16 14.55C1.74 16.17 1.74 18.82 4.16 20.42Z" stroke="#284B8F" stroke-opacity="1.000000" stroke-width="1.500000" stroke-linejoin="round"/>
	<path id="Vector" d="M18.33 20C19.06 19.84 19.74 19.55 20.3 19.12C21.85 17.95 21.85 16.03 20.3 14.86C19.75 14.44 19.08 14.16 18.36 14" stroke="#284B8F" stroke-opacity="1.000000" stroke-width="1.500000" stroke-linejoin="round" stroke-linecap="round"/>
	<g opacity="0.000000"/>
</svg>
