<svg width="27.990234" height="27.991211" viewBox="0 0 27.9902 27.9912" fill="none" xmlns="http://www.w3.org/2000/svg" xmlns:xlink="http://www.w3.org/1999/xlink">
	<desc>
			Created with Pixso.
	</desc>
	<defs/>
	<path id="Vector" d="M7.88 17.08Q8.02 17.27 8.19 17.45L10.53 19.79Q10.71 19.96 10.91 20.1Q11.04 20.19 11.19 20.27Q11.23 20.29 11.27 20.31L11.27 20.31L11.7 23.28Q11.74 23.57 11.86 23.82Q11.96 24.01 12.11 24.18Q12.25 24.35 12.43 24.47Q12.63 24.61 12.88 24.7Q13.12 24.78 13.37 24.79Q13.58 24.79 13.8 24.75Q14.02 24.7 14.22 24.6Q14.46 24.48 14.67 24.27L17.85 21.09Q18 20.95 18.1 20.77Q18.21 20.6 18.27 20.41Q18.34 20.21 18.36 20.01Q18.37 19.81 18.34 19.61L18.07 17.67Q19.65 16.55 20.7 15.41Q22.29 13.69 23.26 10.86Q23.94 8.85 24.25 6.46Q24.3 6.09 24.24 5.74Q24.21 5.53 24.14 5.33Q24.05 5.06 23.9 4.83Q23.76 4.61 23.57 4.41Q23.38 4.22 23.15 4.08Q22.92 3.93 22.65 3.84Q22.45 3.77 22.25 3.74Q21.89 3.68 21.52 3.73Q19.13 4.04 17.13 4.73Q14.29 5.69 12.57 7.28Q11.43 8.33 10.31 9.91L8.37 9.64Q8.17 9.61 7.97 9.62Q7.77 9.64 7.57 9.71Q7.38 9.77 7.21 9.88Q7.04 9.99 6.89 10.13L3.71 13.31Q3.5 13.52 3.38 13.76Q3.28 13.96 3.23 14.18Q3.19 14.4 3.19 14.61Q3.2 14.86 3.28 15.1Q3.37 15.35 3.51 15.55Q3.63 15.73 3.8 15.87Q3.97 16.02 4.16 16.12Q4.41 16.24 4.7 16.28L7.67 16.71L7.67 16.71Q7.69 16.75 7.71 16.79Q7.79 16.94 7.88 17.08ZM7.43 15.16Q7.46 15 7.5 14.84Q7.56 14.62 7.66 14.42Q8.48 12.75 9.39 11.3L8.16 11.12Q8.1 11.11 8.05 11.13Q8 11.15 7.95 11.19L4.77 14.37Q4.71 14.43 4.7 14.49Q4.68 14.56 4.71 14.63Q4.73 14.7 4.78 14.75Q4.83 14.79 4.91 14.8L7.43 15.16ZM16.68 18.59Q15.23 19.5 13.57 20.32Q13.36 20.42 13.14 20.48Q12.99 20.53 12.82 20.55L13.18 23.07Q13.19 23.15 13.24 23.2Q13.28 23.25 13.35 23.27Q13.42 23.3 13.49 23.28Q13.55 23.27 13.61 23.21L16.79 20.03Q16.83 19.99 16.85 19.93Q16.87 19.88 16.86 19.82L16.68 18.59ZM11.59 18.73L9.25 16.39Q9.09 16.23 9 16.03Q8.95 15.9 8.92 15.75Q8.89 15.57 8.91 15.39Q8.94 15.23 9.01 15.08Q9.3 14.48 9.61 13.91L14.07 18.37Q13.5 18.68 12.91 18.97Q12.75 19.04 12.59 19.07Q12.41 19.1 12.23 19.06Q12.08 19.04 11.95 18.98Q11.76 18.89 11.59 18.73ZM15.42 17.6L10.38 12.56Q10.61 12.17 10.85 11.79Q12.23 9.64 13.59 8.38Q15.07 7.01 17.61 6.15Q19.48 5.51 21.71 5.22Q21.91 5.19 22.09 5.24Q22.13 5.25 22.16 5.26Q22.27 5.3 22.36 5.36Q22.44 5.41 22.51 5.48Q22.57 5.54 22.62 5.62Q22.68 5.71 22.72 5.82Q22.73 5.85 22.74 5.89Q22.79 6.07 22.76 6.27Q22.47 8.51 21.83 10.37Q20.98 12.91 19.6 14.39Q18.34 15.75 16.19 17.13Q15.81 17.37 15.42 17.6ZM14.65 12.5Q14.81 12.75 15.02 12.96Q15.24 13.17 15.48 13.33Q15.69 13.47 15.93 13.56Q16.17 13.66 16.41 13.71Q16.68 13.77 16.97 13.77Q17.25 13.77 17.52 13.71Q17.76 13.66 18 13.56Q18.24 13.47 18.45 13.33Q18.7 13.17 18.91 12.96Q19.12 12.75 19.28 12.5Q19.42 12.29 19.51 12.05Q19.61 11.81 19.66 11.57Q19.72 11.3 19.72 11.02Q19.72 10.73 19.66 10.46Q19.61 10.22 19.51 9.98Q19.42 9.74 19.28 9.53Q19.12 9.28 18.91 9.07Q18.7 8.86 18.45 8.7Q18.24 8.56 18 8.47Q17.76 8.37 17.52 8.32Q17.25 8.27 16.97 8.27Q16.68 8.27 16.41 8.32Q16.17 8.37 15.93 8.47Q15.69 8.56 15.48 8.7Q15.24 8.86 15.02 9.07Q14.81 9.28 14.65 9.53Q14.51 9.74 14.42 9.98Q14.32 10.22 14.27 10.46Q14.22 10.73 14.22 11.02Q14.22 11.3 14.27 11.57Q14.32 11.81 14.42 12.05Q14.51 12.29 14.65 12.5ZM16.31 12.08Q16.19 12 16.08 11.9Q15.98 11.79 15.9 11.67Q15.85 11.58 15.81 11.49Q15.77 11.38 15.74 11.28Q15.72 11.15 15.72 11.02Q15.72 10.88 15.74 10.75Q15.77 10.65 15.81 10.54Q15.85 10.45 15.9 10.36Q15.98 10.24 16.08 10.13Q16.19 10.03 16.31 9.95Q16.4 9.9 16.5 9.86Q16.6 9.82 16.7 9.79Q16.83 9.77 16.97 9.77Q17.1 9.77 17.23 9.79Q17.33 9.82 17.44 9.86Q17.53 9.9 17.62 9.95Q17.75 10.03 17.85 10.13Q17.96 10.24 18.03 10.36Q18.08 10.45 18.12 10.54Q18.16 10.65 18.19 10.75Q18.22 10.88 18.22 11.02Q18.22 11.15 18.19 11.28Q18.16 11.38 18.12 11.49Q18.08 11.58 18.03 11.67Q17.96 11.79 17.85 11.9Q17.75 12 17.62 12.08Q17.53 12.13 17.44 12.17Q17.33 12.21 17.23 12.24Q17.1 12.27 16.97 12.27Q16.83 12.27 16.7 12.24Q16.6 12.21 16.5 12.17Q16.4 12.13 16.31 12.08ZM6.18 18.62C6.48 18.32 6.48 17.85 6.18 17.56C5.89 17.26 5.42 17.26 5.12 17.56L3.71 18.97C3.41 19.27 3.41 19.73 3.71 20.03C4 20.33 4.47 20.33 4.77 20.03L6.18 18.62ZM8.3 20.74C8.6 20.44 8.6 19.97 8.3 19.68C8.01 19.38 7.54 19.38 7.24 19.68L4.41 22.51C4.12 22.8 4.12 23.27 4.41 23.57C4.71 23.86 5.18 23.86 5.48 23.57L8.3 20.74ZM10.42 22.86C10.72 22.56 10.72 22.1 10.42 21.8C10.13 21.5 9.66 21.5 9.36 21.8L7.95 23.21C7.65 23.51 7.65 23.98 7.95 24.27C8.25 24.57 8.71 24.57 9.01 24.27L10.42 22.86Z" fill="#2B3F6C" fill-opacity="1.000000" fill-rule="evenodd"/>
</svg>
