<svg width="24.000000" height="24.000000" viewBox="0 0 24 24" fill="none" xmlns="http://www.w3.org/2000/svg" xmlns:xlink="http://www.w3.org/1999/xlink">
	<desc>
			Created with Pixso.
	</desc>
	<defs/>
	<path id="Vector" d="M5.5 4.09C4.34 4.52 3.41 5.88 3.41 7.11L3.41 14.54C3.41 15.72 4.18 17.27 5.14 17.98L9.43 21.19C10.84 22.25 13.16 22.25 14.58 21.19L18.88 17.98C19.83 17.27 20.6 15.72 20.6 14.54L20.6 7.11C20.6 5.88 19.66 4.52 18.51 4.09L13.52 2.22C12.67 1.91 11.32 1.91 10.49 2.22L5.5 4.09Z" stroke="#284B8F" stroke-opacity="1.000000" stroke-width="1.500000" stroke-linejoin="round"/>
	<path id="Vector" d="M11.86 10.91C10.92 10.89 10.17 10.11 10.17 9.16C10.17 8.19 10.96 7.4 11.93 7.4C12.91 7.4 13.69 8.19 13.69 9.16C13.68 10.12 12.93 10.89 12 10.91C11.95 10.91 11.91 10.91 11.86 10.91Z" stroke="#284B8F" stroke-opacity="1.000000" stroke-width="1.500000" stroke-linejoin="round"/>
	<path id="Vector" d="M10 16.05C11.09 16.78 12.88 16.78 13.97 16.05C14.93 15.41 14.93 14.36 13.97 13.72C12.89 12.99 11.1 12.99 10 13.72C9.04 14.36 9.04 15.41 10 16.05Z" stroke="#284B8F" stroke-opacity="1.000000" stroke-width="1.500000" stroke-linejoin="round"/>
	<g opacity="0.000000"/>
</svg>
