<svg width="18.857422" height="15.428711" viewBox="0 0 18.8574 15.4287" fill="none" xmlns="http://www.w3.org/2000/svg" xmlns:xlink="http://www.w3.org/1999/xlink">
	<desc>
			Created with Pixso.
	</desc>
	<defs/>
	<path id="telegram" d="M1.29 6.64C6.35 4.46 9.73 3.02 11.42 2.33C16.24 0.35 17.24 0.01 17.89 0C18.04 -0.01 18.36 0.03 18.57 0.19C18.74 0.34 18.79 0.53 18.81 0.66C18.84 0.79 18.87 1.1 18.84 1.33C18.58 4.04 17.45 10.62 16.88 13.66C16.63 14.94 16.15 15.37 15.69 15.42C14.68 15.51 13.92 14.76 12.94 14.13C11.41 13.14 10.55 12.52 9.06 11.56C7.35 10.44 8.46 9.83 9.44 8.83C9.69 8.56 14.14 4.57 14.22 4.21C14.23 4.17 14.24 4 14.14 3.91C14.04 3.82 13.89 3.85 13.78 3.87C13.63 3.91 11.19 5.5 6.46 8.65C5.77 9.12 5.14 9.35 4.58 9.34C3.95 9.33 2.76 8.99 1.88 8.71C0.79 8.36 -0.08 8.18 0 7.58C0.04 7.28 0.47 6.96 1.29 6.64Z" fill="#232323" fill-opacity="1.000000" fill-rule="evenodd"/>
</svg>
