<svg width="28.000000" height="24.000000" viewBox="0 0 28 24" fill="none" xmlns="http://www.w3.org/2000/svg" xmlns:xlink="http://www.w3.org/1999/xlink">
	<desc>
			Created with Pixso.
	</desc>
	<defs/>
	<path id="telegram" d="M1.92 10.33C9.44 6.94 14.45 4.71 16.96 3.63C24.12 0.55 25.6 0.01 26.57 0C26.79 -0.01 27.26 0.05 27.57 0.31C27.83 0.52 27.91 0.82 27.94 1.03C27.97 1.24 28.02 1.71 27.98 2.08C27.59 6.29 25.92 16.53 25.06 21.25C24.7 23.25 23.99 23.92 23.3 23.98C21.8 24.13 20.67 22.96 19.22 21.98C16.95 20.44 15.66 19.48 13.46 17.98C10.92 16.24 12.57 15.29 14.02 13.73C14.4 13.32 20.99 7.12 21.12 6.56C21.14 6.48 21.15 6.22 21 6.08C20.85 5.95 20.63 5.99 20.47 6.03C20.24 6.08 16.61 8.56 9.59 13.46C8.56 14.2 7.63 14.55 6.8 14.53C5.88 14.51 4.1 13.99 2.79 13.55C1.17 13.01 -0.11 12.72 0 11.8C0.06 11.32 0.7 10.83 1.92 10.33Z" fill="#284B8F" fill-opacity="1.000000" fill-rule="nonzero"/>
</svg>
