<svg width="20.000000" height="20.000000" viewBox="0 0 20 20" fill="none" xmlns="http://www.w3.org/2000/svg" xmlns:xlink="http://www.w3.org/1999/xlink">
	<desc>
			Created with Pixso.
	</desc>
	<defs/>
	<path id="Vector" d="M17.5 4.98C14.72 4.7 11.93 4.56 9.15 4.56C7.5 4.56 5.84 4.64 4.2 4.81L2.5 4.98" stroke="#232323" stroke-opacity="1.000000" stroke-width="1.500000" stroke-linejoin="round" stroke-linecap="round"/>
	<path id="Vector" d="M7.08 4.14L7.26 3.04C7.39 2.25 7.5 1.66 8.9 1.66L11.09 1.66C12.5 1.66 12.6 2.29 12.73 3.05L12.91 4.14" stroke="#232323" stroke-opacity="1.000000" stroke-width="1.500000" stroke-linejoin="round" stroke-linecap="round"/>
	<path id="Vector" d="M15.7 7.61L15.16 16C15.07 17.31 15 18.33 12.67 18.33L7.32 18.33C5 18.33 4.92 17.31 4.83 16L4.29 7.61" stroke="#232323" stroke-opacity="1.000000" stroke-width="1.500000" stroke-linejoin="round" stroke-linecap="round"/>
	<path id="Vector" d="M8.6 13.75L11.38 13.75" stroke="#232323" stroke-opacity="1.000000" stroke-width="1.500000" stroke-linejoin="round" stroke-linecap="round"/>
	<path id="Vector" d="M7.91 10.41L12.08 10.41" stroke="#232323" stroke-opacity="1.000000" stroke-width="1.500000" stroke-linejoin="round" stroke-linecap="round"/>
	<g opacity="0.000000"/>
</svg>
