<svg width="24.000000" height="24.000000" viewBox="0 0 24 24" fill="none" xmlns="http://www.w3.org/2000/svg" xmlns:xlink="http://www.w3.org/1999/xlink">
	<desc>
			Created with Pixso.
	</desc>
	<defs/>
	<path d="M9.5 13.75C9.5 14.72 10.25 15.5 11.16 15.5L13.05 15.5C13.84 15.5 14.5 14.82 14.5 13.97C14.5 13.06 14.09 12.73 13.5 12.52L10.5 11.47C9.91 11.25 9.5 10.94 9.5 10.02C9.5 9.18 10.16 8.49 10.96 8.49L12.83 8.49C13.75 8.49 14.5 9.27 14.5 10.24" stroke="#284B8F" stroke-opacity="1.000000" stroke-width="1.500000" stroke-linejoin="round" stroke-linecap="round"/>
	<path d="M12 7.5L12 16.5" stroke="#284B8F" stroke-opacity="1.000000" stroke-width="1.500000" stroke-linejoin="round" stroke-linecap="round"/>
	<path d="M22 12C22 17.51 17.51 22 12 22C6.48 22 2 17.51 2 12C2 6.48 6.48 2 12 2" stroke="#284B8F" stroke-opacity="1.000000" stroke-width="1.500000" stroke-linejoin="round" stroke-linecap="round"/>
	<path d="M22 6L22 2L18 2" stroke="#284B8F" stroke-opacity="1.000000" stroke-width="1.500000" stroke-linejoin="round" stroke-linecap="round"/>
	<path d="M17 7L22 2" stroke="#284B8F" stroke-opacity="1.000000" stroke-width="1.500000" stroke-linejoin="round" stroke-linecap="round"/>
	<g opacity="0.000000"/>
</svg>
