<svg width="200" height="26" viewBox="0 0 200 26" fill="none" xmlns="http://www.w3.org/2000/svg">
<path d="M5.13541 1.89429H0V24.1056H16.2663V19.9061H5.13541V1.89429Z" fill="white"/>
<path d="M21.0222 24.1056H38.2246V19.982H26.1323V14.8466H36.4284V10.8496H26.1323V6.01779H38.2246V1.89429H21.0222V24.1056Z" fill="white"/>
<path d="M48.6469 7.61161C49.3299 6.95387 50.1394 6.42262 51.0755 6.06845C52.0115 5.71429 53.0487 5.5372 54.187 5.5372C55.376 5.5372 56.4638 5.76488 57.4504 6.19494C58.4623 6.625 59.3731 7.28273 60.2079 8.16815L63.6736 4.98065C62.5352 3.66518 61.1439 2.67858 59.4995 1.97025C57.8552 1.28721 55.9832 0.933044 53.9088 0.933044C52.0368 0.933044 50.3418 1.23662 48.7734 1.81846C47.2302 2.4003 45.8642 3.23513 44.7005 4.32292C43.5368 5.41072 42.6514 6.70089 42.0189 8.16815C41.3865 9.63541 41.0576 11.2545 41.0576 13C41.0576 14.7455 41.3865 16.3646 42.0189 17.8318C42.6514 19.2991 43.5368 20.564 44.6752 21.677C45.8136 22.7648 47.1543 23.5997 48.6975 24.1815C50.2406 24.7634 51.9356 25.0669 53.7823 25.0669C55.4519 25.0669 57.1216 24.8139 58.7912 24.308C60.4608 23.802 61.9534 23.0684 63.2183 22.1071V12.6458H58.2853V19.4762C57.9311 19.6532 57.5769 19.8303 57.1975 19.9568C56.1856 20.311 55.1484 20.4628 54.0859 20.4628C52.9728 20.4628 51.9609 20.2857 51.0249 19.9315C50.1141 19.5774 49.3046 19.0714 48.6216 18.3884C47.9386 17.7053 47.4326 16.9211 47.0531 16.0104C46.699 15.0997 46.4966 14.0878 46.4966 13C46.4966 11.8869 46.6737 10.875 47.0531 9.96428C47.4326 9.05357 47.9639 8.26934 48.6469 7.61161Z" fill="white"/>
<path d="M74.9309 1.89429L65.0396 24.1056H70.3014L77.4354 6.9538L84.544 24.1056H89.9324L79.9904 1.89429H74.9309Z" fill="white"/>
<path d="M106.781 16.9716C108.223 16.3392 109.336 15.4285 110.12 14.2395C110.904 13.0505 111.284 11.6338 111.284 9.96421C111.284 8.29457 110.904 6.85261 110.12 5.63832C109.336 4.42404 108.223 3.51333 106.781 2.85559C105.339 2.22315 103.619 1.89429 101.645 1.89429H92.0322V24.1055H97.1676V17.9329H101.645C101.721 17.9329 101.797 17.9329 101.873 17.9329L106.148 24.1308H111.688L106.73 17.0222C106.755 16.9716 106.781 16.9716 106.781 16.9716ZM104.909 7.10559C105.693 7.78862 106.072 8.72463 106.072 9.96421C106.072 11.1785 105.693 12.1145 104.909 12.7975C104.124 13.4806 102.935 13.8347 101.367 13.8347H97.1929V6.09368H101.367C102.961 6.09368 104.124 6.42255 104.909 7.10559Z" fill="white"/>
<path d="M120.745 1.89429H115.61V24.1056H120.745V1.89429Z" fill="white"/>
<path d="M144.955 1.89429H125.602V6.09368H132.711V24.1056H137.846V6.09368H144.955V1.89429Z" fill="white"/>
<path d="M164.915 1.89429V10.6472H154.821V1.89429H149.686V24.1056H154.821V14.9984H164.915V24.1056H170.051V1.89429H164.915Z" fill="white"/>
<path d="M199.8 24.1056L199.749 1.89429H195.525L187.354 15.6815L179.031 1.89429H174.781V24.1056H179.613V11.052L186.114 21.7529H188.416L194.968 10.7737L194.994 24.1056H199.8Z" fill="white"/>
</svg>
